<svg xmlns="http://www.w3.org/2000/svg" viewBox="0 0 189.25 202.8"><defs><style>.cls-1{fill:#4f1c7e;}</style></defs><title>NC_logo_lilla</title><g id="Layer_2" data-name="Layer 2"><g id="Layer_1-2" data-name="Layer 1"><rect class="cls-1" x="54.62" y="31" width="5" height="100"/><rect class="cls-1" x="64.62" y="31" width="5" height="100"/><rect class="cls-1" x="74.62" y="31" width="5" height="100"/><rect class="cls-1" x="110.62" y="31" width="5" height="100"/><rect class="cls-1" x="120.62" y="31" width="5" height="100"/><rect class="cls-1" x="130.62" y="31" width="5" height="100"/><polygon class="cls-1" points="54.62 31 110.62 131 115.62 131 59.62 31 54.62 31"/><polygon class="cls-1" points="64.62 31 120.62 131 125.62 131 69.62 31 64.62 31"/><polygon class="cls-1" points="74.62 31 130.62 131 135.62 131 79.62 31 74.62 31"/><path class="cls-1" d="M95.62,3a78,78,0,1,1-78,78,78.09,78.09,0,0,1,78-78m0-1a79,79,0,1,0,79,79,79,79,0,0,0-79-79Z"/><path class="cls-1" d="M95.62,162a81,81,0,0,1,0-162V4a77,77,0,0,0,0,154Z"/><path class="cls-1" d="M20,202.42h-1L1,176.44v26H0V174.69H1l17.9,25.92V174.69h1Z"/><path class="cls-1" d="M47.23,190.63A15,15,0,0,1,45.94,197a9.85,9.85,0,0,1-3.67,4.29,10,10,0,0,1-5.48,1.51,9.56,9.56,0,0,1-7.58-3.33q-2.89-3.33-2.89-9v-4a15,15,0,0,1,1.29-6.36,9.81,9.81,0,0,1,3.67-4.29,10.69,10.69,0,0,1,11,0,9.87,9.87,0,0,1,3.69,4.3,14.92,14.92,0,0,1,1.29,6.35Zm-1-4.19a12.13,12.13,0,0,0-2.55-8.06,8.54,8.54,0,0,0-6.89-3,8.5,8.5,0,0,0-6.84,3q-2.55,3-2.55,8.22v4.06a14,14,0,0,0,1.15,5.86,8.86,8.86,0,0,0,3.28,3.91,9,9,0,0,0,5,1.37,8.49,8.49,0,0,0,6.87-3q2.53-3,2.53-8.26Z"/><path class="cls-1" d="M60.44,199.71l.55,1.68.55-1.68,9.31-25H72L61.62,202.42H60.37L50,174.69h1.12Z"/><path class="cls-1" d="M89.62,194.13H76L73,202.42H71.83l10.38-27.73h1.26l10.38,27.73H92.72Zm-13.2-1H89.23l-6.4-17.18Z"/><path class="cls-1" d="M117.15,193.92a9.67,9.67,0,0,1-3,6.58,10,10,0,0,1-6.93,2.29,9.3,9.3,0,0,1-5.23-1.5,9.8,9.8,0,0,1-3.53-4.25,15.2,15.2,0,0,1-1.28-6.29v-4.28a15.44,15.44,0,0,1,1.24-6.33,9.78,9.78,0,0,1,3.53-4.31,9.3,9.3,0,0,1,5.26-1.52,10,10,0,0,1,6.91,2.29,9.57,9.57,0,0,1,3,6.55h-1a8.81,8.81,0,0,0-2.67-5.82,9,9,0,0,0-6.19-2,8,8,0,0,0-6.52,3,12.53,12.53,0,0,0-2.49,8.17v4.08a14.34,14.34,0,0,0,1.1,5.8,9,9,0,0,0,3.17,3.93,8.19,8.19,0,0,0,4.73,1.41,9.12,9.12,0,0,0,6.22-2,8.64,8.64,0,0,0,2.64-5.88Z"/><path class="cls-1" d="M138.17,194.13H124.6l-3.08,8.28h-1.12l10.38-27.73H132l10.38,27.73h-1.12Zm-13.2-1h12.82l-6.4-17.18Z"/><path class="cls-1" d="M157.41,190.55h-9.62v11.86h-1V174.69h8.84a9.74,9.74,0,0,1,6.64,2.15,7.36,7.36,0,0,1,2.47,5.85,7.54,7.54,0,0,1-1.76,5,7.46,7.46,0,0,1-4.48,2.64l7.41,11.86v.27h-1.08Zm-9.62-1h8.74a7,7,0,0,0,5.17-1.94,6.58,6.58,0,0,0,2-4.89,6.37,6.37,0,0,0-2.18-5.1,8.89,8.89,0,0,0-6-1.87h-7.73Z"/><path class="cls-1" d="M187.31,188.67H173.4v12.72h15.84v1H172.38V174.69h16.87v1H173.4v11.92h13.9Z"/></g></g></svg>